<svg width="167" height="51" viewBox="0 0 167 51" fill="none" xmlns="http://www.w3.org/2000/svg">
<g clip-path="url(#clip0_7361_350)">
<path d="M51.8861 25.5C51.8861 5.10278 46.579 0 25.9428 0C5.30654 0 0 5.10278 0 25.5C0 45.8972 5.22921 51 25.9428 51C46.6564 51 51.8856 45.9017 51.8856 25.5H51.8861Z" fill="#1457FF"/>
<path d="M33.5933 45.677C30.3583 43.9394 27.7921 41.8087 25.8767 39.2598C23.9127 39.2931 22.0131 38.9767 20.2211 38.3189C17.464 37.3065 10.2307 33.3662 10.7011 23.717C11.0362 16.8437 16.2614 10.502 23.7798 9.7832L24.284 14.8706C25.9708 12.2953 28.3502 10.6987 31.087 10.3351C36.4322 9.62473 41.7085 13.8607 41.9896 22.3857C42.2206 29.3975 38.7586 35.319 32.5454 37.9121C33.6439 38.9021 34.9337 39.7889 36.4238 40.5902L33.5938 45.678V45.677H33.5933ZM23.8264 15.6207C21.4217 16.0002 19.8434 17.3102 18.9244 18.3822C17.6023 19.9232 16.7869 21.9689 16.6877 23.9947C16.5539 26.7542 17.4611 29.2346 19.2431 30.9787C20.2211 31.9355 21.4079 32.6315 22.7274 33.0398C22.0795 30.9415 21.7112 28.6514 21.618 26.1611C21.4723 22.2575 22.1767 18.72 23.6544 15.9342C23.7109 15.8288 23.7669 15.724 23.8249 15.6212L23.8259 15.6202L23.8264 15.6207ZM32.2366 16.0574C32.1186 16.0574 31.9986 16.0653 31.8772 16.0822C29.1939 16.4389 27.3187 20.6808 27.515 25.948C27.6161 28.6444 28.0905 30.9743 28.9783 33.0016C30.8159 32.4884 32.3615 31.5589 33.5299 30.2525C35.2505 28.3275 36.1051 25.6663 36.0034 22.5566C35.9147 19.8621 35.1508 17.7235 33.9056 16.6883C33.4015 16.269 32.8413 16.0574 32.2361 16.0574H32.2371H32.2366Z" fill="white"/>
<path d="M100.796 18.5689C98.0273 18.5689 95.923 19.6935 94.7398 21.3999H94.6282V11.1641H88.9038V38.747H94.5167V36.0257H94.6644C95.8085 38.13 98.1363 39.2194 100.758 39.2194C105.89 39.2194 110.284 35.4445 110.284 28.912C110.284 22.3796 106.186 18.5689 100.794 18.5689H100.796ZM99.5402 34.0312C96.844 34.0312 94.7398 32.2533 94.7398 29.2031C94.7398 26.153 96.8445 24.3393 99.5402 24.3393C102.236 24.3393 104.266 26.3363 104.266 29.1654C104.266 31.9945 102.198 34.0292 99.5402 34.0292V34.0317V34.0312Z" fill="#13172D"/>
<path d="M119.183 19.0391H113.459V38.7478H119.183V19.0391Z" fill="#13172D"/>
<path d="M135.205 18.5703C132.325 18.5703 130.48 19.769 129.224 21.6185H129.076V19.0422H123.463V38.7509H129.187V29.061C129.187 26.3035 130.407 24.4878 133.064 24.4878C135.722 24.4878 136.905 26.3397 136.905 28.9875V38.7514H142.591V26.6284C142.591 21.838 140.079 18.5708 135.205 18.5708V18.5703Z" fill="#13172D"/>
<path d="M161.276 11.1641V21.7263H161.127C160.019 19.6578 157.731 18.5684 155.109 18.5684C149.94 18.5684 145.583 22.3433 145.583 28.84C145.583 35.3367 149.719 39.2209 155.072 39.2209C157.805 39.2209 160.057 38.0962 161.239 36.3541H161.349V38.749H167V11.1641H161.276ZM156.326 34.0307C153.63 34.0307 151.6 32.217 151.6 29.2026C151.6 26.1883 153.669 24.3388 156.326 24.3388C158.982 24.3388 161.127 26.1167 161.127 29.1649C161.127 32.213 159.022 34.0287 156.326 34.0287V34.0312V34.0307Z" fill="#13172D"/>
<path d="M85.4502 24.9901C85.4502 16.1964 79.8512 10.6033 71.6844 10.6033C63.5177 10.6033 57.71 16.1815 57.71 24.9901C57.71 33.7988 63.5182 39.2821 71.6844 39.2821C72.1747 39.2821 72.6575 39.2602 73.1319 39.217C76.3227 43.6531 80.5025 45.5865 80.5025 45.5865L83.3528 40.3988C81.8286 39.6174 80.3424 38.4818 79.1379 37.2742C82.9826 34.9185 85.4507 30.61 85.4507 24.9901H85.4502ZM63.9152 24.9673C63.9152 20.1665 67.0952 16.9634 71.5778 16.9634C76.0605 16.9634 79.2444 20.0821 79.2444 24.9414C79.2444 28.0259 77.9794 30.5807 75.776 31.9702C74.966 29.7665 74.8455 28.0209 74.8455 28.0209L69.1345 28.5614C69.3105 30.1818 69.6208 31.6418 70.0312 32.9727C66.1727 32.3105 63.9157 29.1784 63.9157 24.9678L63.9152 24.9673Z" fill="#13172D"/>
<path d="M116.301 17.1541C118.239 17.1541 119.809 15.6593 119.809 13.8153C119.809 11.9713 118.238 10.4766 116.301 10.4766C114.364 10.4766 112.792 11.9713 112.792 13.8153C112.792 15.6593 114.363 17.1541 116.301 17.1541Z" fill="#13172D"/>
</g>
<defs>
<clipPath id="clip0_7361_350">
<rect width="167" height="51" fill="white"/>
</clipPath>
</defs>
</svg>
