<svg width="120" height="37" viewBox="0 0 120 37" fill="none" xmlns="http://www.w3.org/2000/svg">
<g clip-path="url(#clip0_6713_3221)">
<path d="M37.2834 18.4C37.2834 3.68201 33.47 0 18.6415 0C3.81308 0 0 3.68201 0 18.4C0 33.1181 3.75751 36.8001 18.6415 36.8001C33.5255 36.8001 37.2831 33.1213 37.2831 18.4H37.2834Z" fill="#81838E"/>
<path d="M24.1391 32.9592C21.8145 31.7054 19.9705 30.168 18.5942 28.3288C17.1829 28.3528 15.818 28.1245 14.5303 27.6499C12.5492 26.9193 7.35154 24.0761 7.68957 17.1135C7.93036 12.154 11.685 7.57801 17.0874 7.05933L17.4497 10.7302C18.6618 8.87202 20.3716 7.71995 22.3381 7.45757C26.179 6.94498 29.9704 10.0015 30.1723 16.1529C30.3383 21.2124 27.8506 25.4852 23.3861 27.3563C24.1754 28.0707 25.1022 28.7105 26.1729 29.2887L24.1394 32.96V32.9592H24.1391ZM17.1209 11.2715C15.393 11.5453 14.2589 12.4906 13.5985 13.2641C12.6485 14.376 12.0626 15.8521 11.9913 17.3139C11.8952 19.3051 12.547 21.0949 13.8275 22.3534C14.5303 23.0438 15.383 23.5459 16.3312 23.8406C15.8657 22.3265 15.601 20.674 15.5341 18.8771C15.4294 16.0604 15.9355 13.5079 16.9973 11.4977C17.0379 11.4217 17.0782 11.346 17.1199 11.2719L17.1206 11.2711L17.1209 11.2715ZM23.1642 11.5866C23.0794 11.5866 22.9932 11.5923 22.9059 11.6045C20.9778 11.8619 19.6303 14.9227 19.7714 18.7233C19.8441 20.669 20.1849 22.3502 20.8229 23.813C22.1433 23.4427 23.2539 22.7721 24.0935 21.8293C25.3298 20.4403 25.9439 18.5201 25.8709 16.2762C25.8071 14.332 25.2582 12.7888 24.3635 12.0418C24.0012 11.7393 23.5987 11.5866 23.1638 11.5866H23.1645H23.1642Z" fill="white"/>
<path d="M72.4283 13.3989C70.4386 13.3989 68.9266 14.2104 68.0763 15.4417H67.9962V8.05579H63.8828V27.9588H67.916V25.9952H68.0222C68.8443 27.5136 70.517 28.2997 72.4005 28.2997C76.0886 28.2997 79.2456 25.5758 79.2456 20.8622C79.2456 16.1485 76.3012 13.3989 72.4265 13.3989H72.4283ZM71.5257 24.556C69.5884 24.556 68.0763 23.2731 68.0763 21.0722C68.0763 18.8713 69.5887 17.5626 71.5257 17.5626C73.4627 17.5626 74.9213 19.0036 74.9213 21.045C74.9213 23.0864 73.4353 24.5546 71.5257 24.5546V24.5564V24.556Z" fill="#81838E"/>
<path d="M85.6407 13.738H81.5273V27.9592H85.6407V13.738Z" fill="#81838E"/>
<path d="M97.1534 13.3998C95.0839 13.3998 93.7578 14.2647 92.8552 15.5992H92.749V13.7403H88.7158V27.9615H92.8292V20.9696C92.8292 18.9798 93.7054 17.6697 95.615 17.6697C97.5246 17.6697 98.3748 19.006 98.3748 20.9165V27.9619H102.46V19.2142C102.46 15.7577 100.656 13.4001 97.1534 13.4001V13.3998Z" fill="#81838E"/>
<path d="M115.887 8.05566V15.6771H115.78C114.984 14.1845 113.339 13.3984 111.456 13.3984C107.741 13.3984 104.611 16.1223 104.611 20.8101C104.611 25.4979 107.582 28.3006 111.429 28.3006C113.393 28.3006 115.011 27.4891 115.86 26.232H115.94V27.9601H120V8.05566H115.887ZM112.33 24.5555C110.393 24.5555 108.934 23.2468 108.934 21.0718C108.934 18.8967 110.421 17.5622 112.33 17.5622C114.239 17.5622 115.78 18.8451 115.78 21.0445C115.78 23.244 114.267 24.5541 112.33 24.5541V24.5559V24.5555Z" fill="#81838E"/>
<path d="M61.4014 18.0321C61.4014 11.6868 57.3781 7.651 51.5098 7.651C45.6415 7.651 41.4683 11.6761 41.4683 18.0321C41.4683 24.3882 45.6418 28.3448 51.5098 28.3448C51.8621 28.3448 52.209 28.329 52.5499 28.2978C54.8427 31.4988 57.8462 32.8939 57.8462 32.8939L59.8943 29.1506C58.799 28.5867 57.7311 27.7673 56.8656 26.8959C59.6282 25.1961 61.4017 22.0873 61.4017 18.0321H61.4014ZM45.9271 18.0156C45.9271 14.5516 48.2121 12.2403 51.4332 12.2403C54.6543 12.2403 56.9421 14.4906 56.9421 17.997C56.9421 20.2226 56.0331 22.0661 54.4498 23.0687C53.8678 21.4786 53.7813 20.219 53.7813 20.219L49.6775 20.609C49.804 21.7783 50.0269 22.8318 50.3219 23.7921C47.5492 23.3143 45.9275 21.0542 45.9275 18.016L45.9271 18.0156Z" fill="#81838E"/>
<path d="M83.5695 12.3779C84.9619 12.3779 86.0903 11.2993 86.0903 9.96872C86.0903 8.63815 84.9615 7.55957 83.5695 7.55957C82.1775 7.55957 81.0483 8.63815 81.0483 9.96872C81.0483 11.2993 82.1771 12.3779 83.5695 12.3779Z" fill="#81838E"/>
</g>
<defs>
<clipPath id="clip0_6713_3221">
<rect width="120" height="36.8001" fill="white"/>
</clipPath>
</defs>
</svg>
