<?xml version="1.0" encoding="utf-8"?>
<!-- Generator: Adobe Illustrator 23.0.3, SVG Export Plug-In . SVG Version: 6.00 Build 0)  -->
<svg version="1.1" id="Слой_1" xmlns="http://www.w3.org/2000/svg" xmlns:xlink="http://www.w3.org/1999/xlink" x="0px" y="0px"
	 viewBox="0 0 159 617" style="enable-background:new 0 0 159 617;" xml:space="preserve">
<style type="text/css">
	.st0{fill:url(#SVGID_1_);}
	.st1{fill:url(#SVGID_2_);}
	.st2{fill:url(#SVGID_3_);}
</style>
<g transform="translate(-1637.5 -3084.343)">
	<g transform="matrix(1, 0, 0, 1, 1637.5, 3084.34)">
		
			<linearGradient id="SVGID_1_" gradientUnits="userSpaceOnUse" x1="329.8477" y1="540.1568" x2="329.9999" y2="540.5392" gradientTransform="matrix(-96.2811 685.0827 679.1127 95.4421 -335071.0625 -277210.4375)">
			<stop  offset="0" style="stop-color:#7F7DFF"/>
			<stop  offset="1" style="stop-color:#0079EF"/>
		</linearGradient>
		<path class="st0" d="M159.2,615.9C9.5,545.4-36.4,377.8,31.3,276.1c41.9-62.9,82-79,127.8-75.8"/>
	</g>
	
		<linearGradient id="SVGID_2_" gradientUnits="userSpaceOnUse" x1="5230.9224" y1="3621.186" x2="5230.3945" y2="3622.0613" gradientTransform="matrix(7.9837 78.5962 78.5962 -7.9837 -324615.0313 -379065.9688)">
		<stop  offset="0" style="stop-color:#7F7DFF"/>
		<stop  offset="1" style="stop-color:#0079EF"/>
	</linearGradient>
	<path class="st1" d="M1794.7,3092.7c-2.1,0-4.3,0.1-6.4,0.4c-20.6,2.9-35.6,21.9-33.7,42.6c1.9,20.9,19.6,36.4,40.2,36"/>
	
		<linearGradient id="SVGID_3_" gradientUnits="userSpaceOnUse" x1="5230.9238" y1="3621.2075" x2="5230.396" y2="3622.0825" gradientTransform="matrix(7.9836 78.5962 78.5962 -7.9836 -324614.6563 -379066.0313)">
		<stop  offset="0" style="stop-color:#7F7DFF"/>
		<stop  offset="1" style="stop-color:#0079EF"/>
	</linearGradient>
	<path class="st2" d="M1796.6,3092.7c-2.1,0-4.3,0.1-6.4,0.4c-20.6,2.9-35.6,21.9-33.7,42.6c1.9,20.9,19.6,36.4,40.2,36"/>
</g>
</svg>
